<svg width="41" height="39" viewBox="0 0 41 39" fill="none" xmlns="http://www.w3.org/2000/svg">
<path d="M20.5 0C9.17375 0 0 8.94697 0 19.9932C0 28.8402 5.86812 36.3127 14.0169 38.9618C15.0419 39.1367 15.4263 38.5369 15.4263 38.0121C15.4263 37.5373 15.4006 35.9628 15.4006 34.2884C10.25 35.2131 8.9175 33.0638 8.5075 31.9392C8.27688 31.3644 7.2775 29.59 6.40625 29.1151C5.68875 28.7403 4.66375 27.8156 6.38063 27.7906C7.995 27.7656 9.14813 29.2401 9.5325 29.8399C11.3775 32.8639 14.3244 32.0142 15.5031 31.4893C15.6825 30.1898 16.2206 29.3151 16.81 28.8152C12.2488 28.3154 7.4825 26.591 7.4825 18.9436C7.4825 16.7693 8.27688 14.9699 9.58375 13.5704C9.37875 13.0706 8.66125 11.0213 9.78875 8.2722C9.78875 8.2722 11.5056 7.74738 15.4263 10.3215C17.0663 9.87166 18.8088 9.64673 20.5513 9.64673C22.2938 9.64673 24.0363 9.87166 25.6763 10.3215C29.5969 7.72238 31.3138 8.2722 31.3138 8.2722C32.4413 11.0213 31.7238 13.0706 31.5188 13.5704C32.8256 14.9699 33.62 16.7443 33.62 18.9436C33.62 26.616 28.8281 28.3154 24.2669 28.8152C25.01 29.44 25.6506 30.6396 25.6506 32.514C25.6506 35.1881 25.625 37.3374 25.625 38.0121C25.625 38.5369 26.0094 39.1617 27.0344 38.9618C31.1041 37.622 34.6403 35.0711 37.1456 31.6683C39.6508 28.2656 40.999 24.1824 41 19.9932C41 8.94697 31.8263 0 20.5 0Z" fill="#6B7280"/>
</svg>
