<svg width="24" height="24" viewBox="0 0 24 24" fill="none" xmlns="http://www.w3.org/2000/svg">
<path fill-rule="evenodd" clip-rule="evenodd" d="M11.9967 2.30176C9.62266 2.30299 7.32647 3.14383 5.51871 4.67392C3.71095 6.20401 2.5095 8.32357 2.12919 10.6536C1.74889 12.9837 2.21451 15.3722 3.44283 17.3923C4.67114 19.4123 6.58204 20.932 8.83384 21.6797C9.33062 21.7719 9.51774 21.464 9.51774 21.2022C9.51774 20.9404 9.5078 20.1814 9.50449 19.3515C6.72251 19.9525 6.13465 18.1775 6.13465 18.1775C5.68093 17.025 5.02517 16.722 5.02517 16.722C4.11771 16.1062 5.09307 16.1177 5.09307 16.1177C6.09823 16.1885 6.62647 17.1435 6.62647 17.1435C7.51737 18.6633 8.96631 18.2236 9.53596 17.9668C9.62538 17.323 9.88536 16.885 10.1718 16.6364C7.94957 16.3861 5.61469 15.5332 5.61469 11.7232C5.60091 10.735 5.96968 9.77948 6.64469 9.05415C6.54202 8.80388 6.19923 7.79291 6.74238 6.41971C6.74238 6.41971 7.58195 6.15298 9.49291 7.43891C11.132 6.99322 12.8614 6.99322 14.5005 7.43891C16.4098 6.15298 17.2477 6.41971 17.2477 6.41971C17.7925 7.78962 17.4497 8.80059 17.347 9.05415C18.0242 9.77959 18.3937 10.7368 18.3787 11.7265C18.3787 15.5447 16.0388 16.3861 13.8133 16.6315C14.1709 16.941 14.4905 17.5453 14.4905 18.4739C14.4905 19.8043 14.4789 20.8745 14.4789 21.2022C14.4789 21.4673 14.6594 21.7768 15.1662 21.6797C17.4182 20.9319 19.3293 19.4119 20.5576 17.3916C21.7859 15.3712 22.2513 12.9823 21.8705 10.652C21.4898 8.32174 20.2878 6.20214 18.4794 4.67232C16.671 3.14249 14.3743 2.30221 12 2.30176H11.9967Z" fill="white"/>
<path d="M8.68621 18.5315C8.68621 18.6122 8.59348 18.6814 8.47425 18.683C8.35502 18.6846 8.25732 18.6188 8.25732 18.5381C8.25732 18.4574 8.35005 18.3883 8.46928 18.3866C8.58851 18.385 8.68621 18.4492 8.68621 18.5315Z" fill="white"/>
<path d="M9.44801 18.4048C9.46291 18.4855 9.38011 18.5695 9.26089 18.5892C9.14166 18.609 9.03733 18.5612 9.02243 18.4822C9.00753 18.4032 9.09364 18.3175 9.20955 18.2961C9.32547 18.2747 9.43311 18.3241 9.44801 18.4048Z" fill="white"/>
<path d="M7.8682 18.4756C7.84336 18.553 7.73076 18.5875 7.61815 18.5546C7.50555 18.5217 7.43103 18.4295 7.45256 18.3504C7.47408 18.2714 7.58835 18.2352 7.70261 18.2714C7.81687 18.3076 7.88973 18.3949 7.8682 18.4756Z" fill="white"/>
<path d="M7.11803 18.1529C7.06338 18.2138 6.95244 18.1973 6.86136 18.115C6.77028 18.0327 6.74875 17.9207 6.80339 17.8614C6.85804 17.8022 6.96899 17.8186 7.06338 17.8993C7.15777 17.98 7.17599 18.0936 7.11803 18.1529V18.1529Z" fill="white"/>
<path d="M6.58319 17.5997C6.52193 17.6425 6.41759 17.5997 6.35964 17.5141C6.34361 17.4987 6.33087 17.4803 6.32216 17.4599C6.31345 17.4396 6.30896 17.4177 6.30896 17.3955C6.30896 17.3734 6.31345 17.3515 6.32216 17.3311C6.33087 17.3108 6.34361 17.2923 6.35964 17.277C6.42091 17.2358 6.52524 17.277 6.58319 17.361C6.64115 17.4449 6.64281 17.5569 6.58319 17.5997V17.5997Z" fill="white"/>
<path d="M6.18908 17.0283C6.15478 17.0455 6.11555 17.0503 6.07809 17.0419C6.04063 17.0334 6.00728 17.0123 5.98374 16.9822C5.91916 16.913 5.9059 16.8175 5.95558 16.7747C6.00526 16.7319 6.09469 16.7517 6.15927 16.8208C6.22385 16.89 6.23875 16.9855 6.18908 17.0283Z" fill="white"/>
<path d="M5.78339 16.5788C5.76187 16.6282 5.68238 16.643 5.6178 16.6084C5.55322 16.5738 5.5052 16.5096 5.52838 16.4586C5.55157 16.4075 5.6294 16.3944 5.69398 16.4289C5.75856 16.4635 5.80823 16.5294 5.78339 16.5788Z" fill="white"/>
</svg>
