<svg width="218" height="95" viewBox="0 0 218 95" fill="none" xmlns="http://www.w3.org/2000/svg">
<rect x="178" y="36" width="40" height="40" rx="3" fill="#7D7CEC"/>
<path d="M103 80C117.365 80 129 68.5295 129 54.3677C129 43.0253 121.558 33.4453 111.223 30.049C109.923 29.8247 109.435 30.5937 109.435 31.2665C109.435 31.8753 109.468 33.8938 109.468 36.0405C116 34.855 117.69 37.6105 118.21 39.0523C118.503 39.7893 119.77 42.0641 120.875 42.6729C121.785 43.1535 123.085 44.339 120.908 44.371C118.86 44.4031 117.398 42.5127 116.91 41.7437C114.57 37.8668 110.833 38.9562 109.338 39.6291C109.11 41.2952 108.428 42.4166 107.68 43.0574C113.465 43.6982 119.51 45.909 119.51 55.7134C119.51 58.5009 118.503 60.8078 116.845 62.602C117.105 63.2429 118.015 65.8702 116.585 69.3946C116.585 69.3946 114.407 70.0675 109.435 66.7673C107.355 67.344 105.145 67.6324 102.935 67.6324C100.725 67.6324 98.515 67.344 96.435 66.7673C91.4625 70.0995 89.285 69.3946 89.285 69.3946C87.855 65.8702 88.765 63.2429 89.025 62.602C87.3675 60.8078 86.36 58.5329 86.36 55.7133C86.36 45.8769 92.4375 43.6982 98.2225 43.0574C97.28 42.2564 96.4675 40.7184 96.4675 38.3154C96.4675 34.8871 96.5 32.1316 96.5 31.2665C96.5 30.5937 96.0125 29.7926 94.7125 30.049C89.5509 31.7667 85.0659 35.037 81.8886 39.3996C78.7112 43.7621 77.0013 48.9969 77 54.3677C77 68.5295 88.635 80 103 80Z" fill="#7D7CEC"/>
<path d="M41.5938 46.125C41.5938 49.3125 40.9896 52.0729 39.7812 54.4062C38.5938 56.7396 36.9167 58.6979 34.75 60.2812C32.5833 61.8438 29.9688 63.0625 26.9062 63.9375C23.8646 64.8125 20.4896 65.375 16.7812 65.625C16.9479 67.3125 17.1042 69.0417 17.25 70.8125C17.4167 72.5625 17.6146 74.4167 17.8438 76.375L3.0625 77.4062C3.47917 72.0521 3.80208 66.7292 4.03125 61.4375C4.28125 56.125 4.40625 50.7812 4.40625 45.4062C4.40625 44.0104 4.39583 42.7396 4.375 41.5938C4.375 40.4479 4.35417 39.3333 4.3125 38.25C4.29167 37.1667 4.25 36.0521 4.1875 34.9062C4.125 33.7604 4.05208 32.4792 3.96875 31.0625C6.48958 30.2917 9.05208 29.7396 11.6562 29.4062C14.2812 29.0729 16.9896 28.9062 19.7812 28.9062C21.1771 28.9062 22.6875 28.9792 24.3125 29.125C25.9375 29.2708 27.5521 29.5625 29.1562 30C30.7812 30.4375 32.3333 31.0521 33.8125 31.8438C35.3125 32.6146 36.6354 33.6354 37.7812 34.9062C38.9479 36.1771 39.875 37.7396 40.5625 39.5938C41.25 41.4271 41.5938 43.6042 41.5938 46.125ZM15.625 35.5C15.625 37.4792 15.625 39.4167 15.625 41.3125C15.6458 43.1875 15.6771 45.0625 15.7188 46.9375C15.7604 48.7917 15.8125 50.6667 15.875 52.5625C15.9583 54.4583 16.0625 56.4062 16.1875 58.4062H17.3438C19.1771 58.4062 21.0208 58.3542 22.875 58.25C24.7292 58.125 26.4896 57.9167 28.1562 57.625C28.4479 56.5 28.6562 55.0833 28.7812 53.375C28.9271 51.6667 29 49.8438 29 47.9062C29 46.6979 28.9688 45.4792 28.9062 44.25C28.8438 43.0208 28.7604 41.8438 28.6562 40.7188C28.5521 39.5938 28.4062 38.5521 28.2188 37.5938C28.0521 36.6146 27.8646 35.7812 27.6562 35.0938C27.3646 35.0521 27.0208 35.0208 26.625 35C26.25 34.9792 25.8229 34.9688 25.3438 34.9688C24.3854 34.9688 23.3438 35 22.2188 35.0625C21.1146 35.125 20.0625 35.1875 19.0625 35.25C17.9167 35.3333 16.7708 35.4167 15.625 35.5ZM76.5312 77.0938C73.6771 76.9062 70.8021 76.7604 67.9062 76.6562C65.0104 76.5521 62.1042 76.5 59.1875 76.5C56.7083 76.5 54.2292 76.5417 51.75 76.625C49.2708 76.7083 46.7604 76.8646 44.2188 77.0938C44.3854 73.3438 44.5104 69.625 44.5938 65.9375C44.6771 62.2292 44.7188 58.5 44.7188 54.75C44.7188 50.5625 44.6771 46.3958 44.5938 42.25C44.5104 38.0833 44.3854 33.9688 44.2188 29.9062H58.0312C57.9479 34.8438 57.8646 39.6458 57.7812 44.3125C57.7396 46.3125 57.7083 48.375 57.6875 50.5C57.6667 52.625 57.6354 54.7188 57.5938 56.7812C57.5729 58.8438 57.5521 60.8229 57.5312 62.7188C57.5312 64.5938 57.5312 66.2917 57.5312 67.8125L76.5312 67.2812V77.0938Z" fill="#E2E2EB"/>
<path d="M170.5 31.7812C170.188 38.1771 169.938 43.6562 169.75 48.2188C169.583 52.7812 169.458 56.5208 169.375 59.4375C169.271 62.875 169.198 65.7083 169.156 67.9375C169.052 70.5833 168.469 72.8646 167.406 74.7812C166.365 76.6979 165 78.2917 163.312 79.5625C161.646 80.8333 159.74 81.8021 157.594 82.4688C155.469 83.1354 153.26 83.5417 150.969 83.6875C148.656 83.6875 146.542 83.4062 144.625 82.8438C142.729 82.2812 141.073 81.4896 139.656 80.4688C138.26 79.4479 137.115 78.2396 136.219 76.8438C135.344 75.4479 134.781 73.9062 134.531 72.2188L147.219 71.3438C147.01 71.8854 146.875 72.4375 146.812 73C146.771 73.5625 146.75 74.1354 146.75 74.7188C146.75 75.2396 146.771 75.7708 146.812 76.3125C146.875 76.8542 147.01 77.3958 147.219 77.9375C147.51 77.9792 147.802 78 148.094 78C148.385 78 148.688 78 149 78C151.979 78 154.927 77.6771 157.844 77.0312C158.031 74.6979 158.188 72.375 158.312 70.0625C158.438 67.7708 158.552 65.4688 158.656 63.1562C157.656 63.7812 156.635 64.2604 155.594 64.5938C154.552 64.9062 153.594 65.1458 152.719 65.3125C151.698 65.5 150.698 65.6042 149.719 65.625C148.552 65.625 147.375 65.4583 146.188 65.125C145 64.8125 143.854 64.3438 142.75 63.7188C141.646 63.0938 140.604 62.3229 139.625 61.4062C138.646 60.4896 137.792 59.4271 137.062 58.2188C136.333 57.0104 135.76 55.6771 135.344 54.2188C134.927 52.7396 134.719 51.125 134.719 49.375C134.719 46.7708 135.062 44.3958 135.75 42.25C136.458 40.0833 137.469 38.2292 138.781 36.6875C140.094 35.125 141.698 33.9167 143.594 33.0625C145.49 32.2083 147.635 31.7812 150.031 31.7812C151.01 31.8021 152.01 31.9062 153.031 32.0938C153.906 32.2604 154.865 32.5208 155.906 32.875C156.948 33.2083 157.948 33.6979 158.906 34.3438C158.906 33.8021 158.896 33.25 158.875 32.6875C158.854 32.125 158.844 31.5729 158.844 31.0312L170.5 31.7812ZM159.062 45.875C159.062 44.8958 159.052 43.9271 159.031 42.9688C159.031 41.9896 159.01 41.0104 158.969 40.0312C158.594 39.9896 158.219 39.9688 157.844 39.9688C157.469 39.9688 157.104 39.9688 156.75 39.9688C155.958 39.9688 155.177 39.9792 154.406 40C153.635 40.0208 152.844 40.0625 152.031 40.125C151.219 40.1667 150.365 40.2292 149.469 40.3125C148.573 40.375 147.604 40.4583 146.562 40.5625C146.5 41.5208 146.448 42.4583 146.406 43.375C146.385 44.2708 146.375 45.1875 146.375 46.125C146.375 48.0208 146.448 49.8958 146.594 51.75C146.74 53.5833 146.948 55.4375 147.219 57.3125C148.219 57.375 149.135 57.4271 149.969 57.4688C150.802 57.4896 151.615 57.5 152.406 57.5C153.552 57.5 154.635 57.4792 155.656 57.4375C156.677 57.3958 157.76 57.3125 158.906 57.1875C158.948 55.2917 158.979 53.4062 159 51.5312C159.042 49.6562 159.062 47.7708 159.062 45.875Z" fill="#E2E2EB"/>
<path d="M190.72 45.1426C190.72 46.8782 189.216 48.2851 187.36 48.2851C185.504 48.2851 184 46.8782 184 45.1426C184 43.407 185.504 42 187.36 42C189.216 42 190.72 43.407 190.72 45.1426Z" fill="#E2E2EB"/>
<path d="M184.459 50.5951H190.203V68H184.459V50.5951Z" fill="#E2E2EB"/>
<path d="M199.451 50.5951H193.707V68.0001H199.451C199.451 68.0001 199.451 62.5208 199.451 59.0949C199.451 57.0385 200.153 54.9731 202.954 54.9731C206.121 54.9731 206.102 57.6641 206.087 59.749C206.067 62.474 206.113 65.255 206.113 68.0001H211.857V58.8141C211.809 52.9487 210.28 50.246 205.252 50.246C202.266 50.246 200.415 51.6017 199.451 52.8281V50.5951Z" fill="#E2E2EB"/>
</svg>
